<svg width="757" height="164" viewBox="0 0 757 164" fill="none" xmlns="http://www.w3.org/2000/svg">
<path d="M355.863 58.8548C344.721 58.8548 335.686 49.8208 335.686 38.6775C335.686 34.2775 337.099 30.2097 339.489 26.894C328.079 18.5718 313.999 13.6667 298.698 13.6667C260.237 13.6667 229.663 44.626 229.663 83.0849C229.663 121.543 260.237 152.118 298.698 152.118C337.156 152.118 367.923 121.543 367.923 83.0849C367.923 74.0413 366.222 65.413 363.119 57.5044C360.867 58.3732 358.422 58.8548 355.863 58.8548ZM298.698 121.351C277.736 121.351 260.431 104.044 260.431 83.0858C260.431 61.9315 277.738 44.4341 298.698 44.4341C319.843 44.4341 337.15 61.9333 337.15 83.0858C337.15 104.045 319.843 121.353 298.689 121.353V121.351H298.698Z" fill="#FFB400"/>
<path d="M355.83 13.8246C342.022 13.8246 331.047 24.9382 331.047 38.7456C331.047 52.553 342.022 63.5288 355.83 63.5288C369.637 63.5288 380.683 52.553 380.683 38.7456C380.683 24.9382 369.637 13.8246 355.83 13.8246ZM355.818 57.0708C345.794 57.0708 337.516 48.7941 337.516 38.7691C337.516 28.6544 345.794 20.286 355.818 20.286C365.934 20.286 374.211 28.6544 374.211 38.7709C374.211 48.7941 365.934 57.0708 355.818 57.0708V57.0708Z" fill="#FFB400"/>
<path d="M0.773859 130.307C0.609859 131.373 1.34786 132.111 2.33186 132.111H12.0079C12.8279 132.111 13.4839 131.455 13.5659 130.799L17.1739 105.461H17.3379L31.1959 132.029C31.4419 132.521 32.0979 132.931 32.5899 132.931H34.0659C34.4759 132.931 35.2139 132.521 35.4599 132.029L49.2359 105.461H49.3999L53.0899 130.799C53.1719 131.455 53.9099 132.111 54.6479 132.111H64.3239C65.3079 132.111 66.0459 131.373 65.8819 130.307L56.6159 75.2031C56.5339 74.4651 55.7959 73.8911 55.1399 73.8911H53.8279C53.4179 73.8911 52.6799 74.2191 52.4339 74.7111L33.4099 110.135H33.2459L14.2219 74.7111C13.9759 74.2191 13.2379 73.8911 12.8279 73.8911H11.5159C10.8599 73.8911 10.1219 74.4651 10.0399 75.2031L0.773859 130.307Z" fill="#FFFDD8"/>
<path d="M75.5521 110.135C75.5521 122.599 85.9661 132.931 98.8401 132.931C111.796 132.931 122.292 122.599 122.292 110.135V76.2691C122.292 75.4491 121.554 74.7111 120.734 74.7111H110.648C109.746 74.7111 109.09 75.4491 109.09 76.2691V109.479C109.09 115.219 104.744 119.811 98.8401 119.811C93.0181 119.811 88.7541 115.219 88.7541 109.479V76.2691C88.7541 75.4491 88.0981 74.7111 87.1961 74.7111H77.1101C76.2901 74.7111 75.5521 75.4491 75.5521 76.2691V110.135Z" fill="#FFFDD8"/>
<path d="M131.37 103.493C131.37 119.893 144.49 132.849 160.808 132.849C172.698 132.849 181.144 127.519 181.144 127.519C181.472 127.273 181.8 126.617 181.8 126.207L181.718 104.149C181.718 103.329 181.062 102.591 180.242 102.591H163.76C162.858 102.591 162.202 103.247 162.202 104.149V112.267C162.202 113.087 162.858 113.743 163.76 113.743H168.926V118.499C166.466 119.483 164.006 119.811 161.628 119.811C152.69 119.811 145.392 112.431 145.392 103.493C145.392 94.4731 152.608 86.9291 161.546 86.9291C165.564 86.9291 169.172 87.9951 172.288 90.8651C172.944 91.3571 173.846 91.3571 174.502 90.7831L180.98 83.8951C181.636 83.2391 181.554 82.2551 180.816 81.6811C175.24 76.8431 167.696 73.9731 160.808 73.9731C144.49 73.9731 131.37 87.0931 131.37 103.493Z" fill="#FFFDD8"/>
<path d="M400.697 132.029C400.943 132.521 401.435 132.931 402.091 132.931H402.911C403.567 132.931 404.059 132.521 404.305 132.029L430.053 76.8431C430.545 75.7771 429.889 74.7111 428.659 74.7111H417.753C417.097 74.7111 416.523 75.2031 416.359 75.6131L402.829 105.543H402.337L388.807 75.6131C388.643 75.2031 388.069 74.7111 387.413 74.7111H376.507C375.277 74.7111 374.621 75.7771 375.113 76.8431L400.697 132.029Z" fill="#FFFDD8"/>
<path d="M436.786 130.553C436.786 131.373 437.442 132.111 438.344 132.111H472.292C473.194 132.111 473.85 131.373 473.85 130.553V121.615C473.85 120.795 473.194 120.057 472.292 120.057H449.578V108.987H468.274C469.094 108.987 469.832 108.331 469.832 107.429V98.4911C469.832 97.6711 469.094 96.9331 468.274 96.9331H449.578V86.7651H472.292C473.194 86.7651 473.85 86.0271 473.85 85.2071V76.2691C473.85 75.4491 473.194 74.7111 472.292 74.7111H438.344C437.442 74.7111 436.786 75.4491 436.786 76.2691V130.553Z" fill="#FFFDD8"/>
<path d="M484.833 130.553C484.833 131.373 485.489 132.111 486.391 132.111H496.149C496.969 132.111 497.707 131.373 497.707 130.553V109.643H503.365L514.271 131.373C514.435 131.701 514.927 132.111 515.583 132.111H526.489C527.883 132.111 528.457 130.799 527.883 129.733L516.649 108.905C523.783 106.035 528.785 99.9671 528.785 92.4231C528.785 82.6651 520.749 74.7111 510.909 74.7111H486.391C485.489 74.7111 484.833 75.4491 484.833 76.2691V130.553ZM497.707 99.2291V86.4371H509.843C513.205 86.4371 516.075 89.2251 516.075 92.6691C516.075 96.1131 513.205 99.2291 509.843 99.2291H497.707Z" fill="#FFFDD8"/>
<path d="M539.766 130.553C539.766 131.373 540.422 132.111 541.324 132.111H551C551.82 132.111 552.558 131.373 552.558 130.553V110.627H571.254C572.074 110.627 572.812 109.889 572.812 109.069V100.131C572.812 99.3111 572.074 98.5731 571.254 98.5731H552.558V86.7651H575.272C576.174 86.7651 576.83 86.0271 576.83 85.2071V76.2691C576.83 75.4491 576.174 74.7111 575.272 74.7111H541.324C540.422 74.7111 539.766 75.4491 539.766 76.2691V130.553Z" fill="#FFFDD8"/>
<path d="M585.971 130.553C585.971 131.373 586.627 132.111 587.529 132.111H618.362C619.263 132.111 619.919 131.373 619.919 130.553V121.615C619.919 120.795 619.263 120.057 618.362 120.057H598.845V76.2691C598.845 75.4491 598.107 74.7111 597.287 74.7111H587.529C586.627 74.7111 585.971 75.4491 585.971 76.2691V130.553Z" fill="#FFFDD8"/>
<path d="M623.35 103.493C623.35 119.893 636.388 132.931 652.788 132.931C669.188 132.931 682.308 119.893 682.308 103.493C682.308 87.0931 669.188 73.8911 652.788 73.8911C636.388 73.8911 623.35 87.0931 623.35 103.493ZM636.47 103.493C636.47 94.4731 643.85 87.0111 652.788 87.0111C661.808 87.0111 669.188 94.4731 669.188 103.493C669.188 112.431 661.808 119.811 652.788 119.811C643.85 119.811 636.47 112.431 636.47 103.493Z" fill="#FFFDD8"/>
<path d="M702.249 131.783C702.413 132.439 703.069 132.931 703.725 132.931H705.037C705.611 132.931 706.185 132.521 706.431 132.029L721.355 98.4911H721.601L736.607 132.029C736.853 132.521 737.427 132.931 738.001 132.931H739.313C739.969 132.931 740.625 132.439 740.789 131.783L756.287 76.6791C756.615 75.5311 755.959 74.7111 754.811 74.7111H745.217C744.561 74.7111 743.905 75.2851 743.741 75.8591L736.689 103.657H736.361L723.651 74.7931C723.487 74.3011 722.995 73.8911 722.257 73.8911H720.781C720.125 73.8911 719.633 74.3011 719.387 74.7931L706.677 103.657H706.349L699.297 75.8591C699.133 75.2851 698.477 74.7111 697.821 74.7111H688.227C687.079 74.7111 686.423 75.5311 686.751 76.6791L702.249 131.783Z" fill="#FFFDD8"/>
<path d="M425.04 68.4583H431.061C432.156 68.4583 432.758 67.8083 433.031 67.1583L435.002 62.825H449.89L451.86 67.1042C452.353 68.1333 452.791 68.4583 453.776 68.4583H459.851C460.672 68.4583 461.11 67.7542 460.782 67.05L443.65 30.5958C443.486 30.2708 443.103 30 442.719 30H442.172C441.789 30 441.406 30.2708 441.242 30.5958L424.11 67.05C423.781 67.7542 424.219 68.4583 425.04 68.4583ZM438.286 55.4583L442.391 46.5208H442.446L446.606 55.4583H438.286Z" fill="#FFB400"/>
<path d="M461.403 57.625C461.403 63.8542 466.055 69 472.24 69C477.057 69 479.575 65.5875 479.575 65.5875L480.231 67.375C480.45 67.9708 480.834 68.4583 481.381 68.4583H483.953C484.501 68.4583 484.993 67.9708 484.993 67.4292V31.5708C484.993 31.0292 484.501 30.5417 483.953 30.5417H477.878C477.331 30.5417 476.838 31.0292 476.838 31.5708V47.2792C476.181 46.9 474.156 46.25 472.295 46.25C466.438 46.25 461.403 49.9875 461.403 57.625ZM468.901 57.5708C468.901 55.1333 470.817 53.2375 473.335 53.2375C475.853 53.2375 477.714 55.1333 477.714 57.5708C477.714 60.0625 475.853 62.0125 473.335 62.0125C470.817 62.0125 468.901 60.0625 468.901 57.5708Z" fill="#FFB400"/>
<path d="M490.892 67.4292C490.892 67.9708 491.33 68.4583 491.932 68.4583H497.679C498.226 68.4583 498.719 67.9708 498.719 67.4292V57.0292C498.719 54.8083 500.361 53.2375 502.55 53.2375C505.013 53.2375 505.999 55.1333 505.999 57.3V67.4292C505.999 67.9708 506.437 68.4583 507.039 68.4583H512.293C512.895 68.4583 513.333 67.9708 513.333 67.4292V56.9208C513.333 54.8083 515.085 53.2375 517 53.2375C519.518 53.2375 520.668 55.1333 520.668 57.3V67.4292C520.668 67.9708 521.105 68.4583 521.708 68.4583H527.509C528.111 68.4583 528.549 67.9708 528.549 67.4292V57.625C528.549 51.45 525.211 46.25 518.423 46.25C514.701 46.25 512.129 48.3083 510.87 49.5542C508.9 47.3875 506.765 46.25 503.7 46.25C500.197 46.25 497.679 48.2 496.311 49.6083L495.38 47.3875C495.216 47.0625 494.833 46.7917 494.45 46.7917H491.932C491.33 46.7917 490.892 47.225 490.892 47.8208V67.4292Z" fill="#FFB400"/>
<path d="M537.916 40.2375C540.325 40.2375 542.295 38.3417 542.295 35.9583C542.295 33.575 540.325 31.625 537.916 31.625C535.508 31.625 533.592 33.575 533.592 35.9583C533.592 38.3417 535.508 40.2375 537.916 40.2375ZM533.921 67.4292C533.921 67.9708 534.413 68.4583 534.961 68.4583H540.981C541.529 68.4583 542.021 67.9708 542.021 67.4292V47.8208C542.021 47.225 541.529 46.7917 540.981 46.7917H534.961C534.413 46.7917 533.921 47.225 533.921 47.8208V67.4292Z" fill="#FFB400"/>
<path d="M547.925 67.4292C547.925 67.9708 548.418 68.4583 548.965 68.4583H554.712C555.478 68.4583 555.697 67.9167 555.697 67.4292V57.0292C555.697 54.8083 557.668 53.2375 559.857 53.2375C562.32 53.2375 563.579 55.1333 563.579 57.3V67.4292C563.579 67.9708 564.017 68.4583 564.619 68.4583H570.476C571.023 68.4583 571.516 67.9708 571.516 67.4292V57.5708C571.516 51.3958 567.903 46.25 561.116 46.25C557.12 46.25 554.603 48.3083 553.398 49.6083L552.523 47.4417C552.358 47.0625 551.866 46.7917 551.537 46.7917H548.965C548.418 46.7917 547.925 47.225 547.925 47.8208V67.4292Z" fill="#FFB400"/>
<path d="M580.838 40.2375C583.246 40.2375 585.217 38.3417 585.217 35.9583C585.217 33.575 583.246 31.625 580.838 31.625C578.43 31.625 576.514 33.575 576.514 35.9583C576.514 38.3417 578.43 40.2375 580.838 40.2375ZM576.842 67.4292C576.842 67.9708 577.335 68.4583 577.882 68.4583H583.903C584.451 68.4583 584.943 67.9708 584.943 67.4292V47.8208C584.943 47.225 584.451 46.7917 583.903 46.7917H577.882C577.335 46.7917 576.842 47.225 576.842 47.8208V67.4292Z" fill="#FFB400"/>
<path d="M590.08 67.2125C591.175 68.0792 593.912 69 597.524 69C603.709 69 606.775 65.9125 606.775 62.1208C606.775 57.7875 603.709 56.0542 599.276 54.5375C597.415 53.8875 596.813 53.3458 596.813 52.8042C596.813 52.2083 597.305 52.0458 598.017 52.0458C600.152 52.0458 602.669 53.2917 602.669 53.2917C603.107 53.4542 603.655 53.2917 603.819 52.9667L605.844 49.2833C606.172 48.7417 605.789 48.2542 605.297 47.9292C604.093 47.1708 601.465 46.25 598.017 46.25C592.106 46.25 589.478 49.175 589.478 52.8042C589.478 56.1625 591.339 58.6 595.609 60.0625C598.4 61.0375 598.729 61.7958 598.729 62.3375C598.729 62.9875 598.236 63.3125 597.689 63.3125C595.335 63.3125 592.762 61.9042 592.762 61.9042C592.325 61.6875 591.777 62.0125 591.613 62.3375L589.697 66.075C589.424 66.5625 589.697 66.8875 590.08 67.2125Z" fill="#FFB400"/>
<path d="M612.034 61.4708C612.034 66.4 614.443 69 618.602 69C621.339 69 625.225 67.8083 625.225 67.8083C625.773 67.6458 626.046 67.05 625.937 66.5625L624.733 62.0667C624.568 61.4708 624.076 61.2542 623.528 61.3625C622.981 61.4708 622.16 61.7417 621.394 61.7417C620.737 61.7417 619.916 61.6333 619.916 60.4417V53.6708H623.966C624.568 53.6708 625.006 53.1833 625.006 52.6417V47.8208C625.006 47.225 624.568 46.7917 623.966 46.7917H619.916V40.7792C619.916 40.2375 619.478 39.75 618.931 39.75H613.074C612.527 39.75 612.034 40.2375 612.034 40.7792V46.7917H610.611C610.064 46.7917 609.626 47.225 609.626 47.8208V52.6417C609.626 53.1833 610.064 53.6708 610.611 53.6708H612.034V61.4708Z" fill="#FFB400"/>
<path d="M629.973 67.4292C629.973 67.9708 630.466 68.4583 631.013 68.4583H636.596C637.472 68.4583 637.801 68.0792 637.801 67.4292V56.2167C637.801 54.375 639.059 53.1292 640.701 53.1292C641.194 53.1292 641.741 53.2917 642.015 53.4C642.617 53.6167 643 53.2917 643.219 52.9125L645.901 48.5792C646.668 47.3333 644.533 46.25 641.522 46.25C638.676 46.25 636.651 48.2542 635.556 49.825L634.571 47.4417C634.407 47.1167 634.188 46.7917 633.586 46.7917H631.013C630.466 46.7917 629.973 47.225 629.973 47.8208V67.4292Z" fill="#FFB400"/>
<path d="M647.364 61.85C647.364 66.1292 650.593 69 654.917 69C658.366 69 660.281 67.4292 661.54 66.2917L662.307 67.7542C662.58 68.35 662.964 68.4583 663.292 68.4583H665.7C666.248 68.4583 666.74 67.9708 666.74 67.4292V55.4583C666.74 49.0667 664.277 46.25 657.49 46.25C654.534 46.25 650.703 46.9 650.21 47.0625C649.718 47.225 649.225 47.6042 649.389 48.525L649.882 51.9375C649.991 52.75 650.375 53.3458 651.196 53.075C652.619 52.6417 655.191 52.2625 656.669 52.2625C659.296 52.2625 659.625 53.3458 659.625 55.4583C659.625 55.4583 657.873 54.5917 655.41 54.5917C650.429 54.5917 647.364 57.6792 647.364 61.85ZM654.48 61.3083C654.48 60.0625 655.52 59.0333 656.833 59.0333C658.147 59.0333 659.187 60.0625 659.242 61.3083C659.242 62.6083 658.147 63.6917 656.833 63.6917C655.52 63.6917 654.48 62.6083 654.48 61.3083Z" fill="#FFB400"/>
<path d="M673.183 61.4708C673.183 66.4 675.591 69 679.751 69C682.488 69 686.374 67.8083 686.374 67.8083C686.921 67.6458 687.195 67.05 687.086 66.5625L685.881 62.0667C685.717 61.4708 685.225 61.2542 684.677 61.3625C684.13 61.4708 683.309 61.7417 682.543 61.7417C681.886 61.7417 681.065 61.6333 681.065 60.4417V53.6708H685.115C685.717 53.6708 686.155 53.1833 686.155 52.6417V47.8208C686.155 47.225 685.717 46.7917 685.115 46.7917H681.065V40.7792C681.065 40.2375 680.627 39.75 680.08 39.75H674.223C673.676 39.75 673.183 40.2375 673.183 40.7792V46.7917H671.76C671.213 46.7917 670.775 47.225 670.775 47.8208V52.6417C670.775 53.1833 671.213 53.6708 671.76 53.6708H673.183V61.4708Z" fill="#FFB400"/>
<path d="M695.118 40.2375C697.526 40.2375 699.497 38.3417 699.497 35.9583C699.497 33.575 697.526 31.625 695.118 31.625C692.71 31.625 690.794 33.575 690.794 35.9583C690.794 38.3417 692.71 40.2375 695.118 40.2375ZM691.122 67.4292C691.122 67.9708 691.615 68.4583 692.162 68.4583H698.183C698.73 68.4583 699.223 67.9708 699.223 67.4292V47.8208C699.223 47.225 698.73 46.7917 698.183 46.7917H692.162C691.615 46.7917 691.122 47.225 691.122 47.8208V67.4292Z" fill="#FFB400"/>
<path d="M703.43 57.5708C703.43 63.8 708.575 69 714.815 69C721.054 69 726.2 63.8 726.2 57.5708C726.2 51.45 721.054 46.25 714.815 46.25C708.575 46.25 703.43 51.45 703.43 57.5708ZM710.491 57.5708C710.491 55.1875 712.406 53.2375 714.815 53.2375C717.223 53.2375 719.139 55.1875 719.139 57.5708C719.139 60.0083 717.223 62.0125 714.815 62.0125C712.406 62.0125 710.491 60.0083 710.491 57.5708Z" fill="#FFB400"/>
<path d="M730.409 67.4292C730.409 67.9708 730.902 68.4583 731.449 68.4583H737.196C737.963 68.4583 738.182 67.9167 738.182 67.4292V57.0292C738.182 54.8083 740.152 53.2375 742.342 53.2375C744.805 53.2375 746.063 55.1333 746.063 57.3V67.4292C746.063 67.9708 746.501 68.4583 747.103 68.4583H752.96C753.507 68.4583 754 67.9708 754 67.4292V57.5708C754 51.3958 750.388 46.25 743.6 46.25C739.605 46.25 737.087 48.3083 735.883 49.6083L735.007 47.4417C734.843 47.0625 734.35 46.7917 734.022 46.7917H731.449C730.902 46.7917 730.409 47.225 730.409 47.8208V67.4292Z" fill="#FFB400"/>
</svg>
