<svg width="757" height="164" viewBox="0 0 757 164" fill="none" xmlns="http://www.w3.org/2000/svg">
<g clip-path="url(#clip0_2_35)">
<path d="M355.863 58.8548C344.721 58.8548 335.686 49.8208 335.686 38.6775C335.686 34.2775 337.099 30.2097 339.489 26.894C328.079 18.5718 313.999 13.6667 298.698 13.6667C260.237 13.6667 229.663 44.626 229.663 83.0849C229.663 121.543 260.237 152.118 298.698 152.118C337.156 152.118 367.923 121.543 367.923 83.0849C367.923 74.0413 366.222 65.413 363.119 57.5044C360.867 58.3732 358.422 58.8548 355.863 58.8548ZM298.698 121.351C277.736 121.351 260.431 104.044 260.431 83.0858C260.431 61.9315 277.738 44.4341 298.698 44.4341C319.843 44.4341 337.15 61.9333 337.15 83.0858C337.15 104.045 319.843 121.353 298.689 121.353V121.351H298.698Z" fill="#FFB400"/>
<path d="M355.83 13.8246C342.022 13.8246 331.047 24.9382 331.047 38.7456C331.047 52.553 342.022 63.5288 355.83 63.5288C369.637 63.5288 380.683 52.553 380.683 38.7456C380.683 24.9382 369.637 13.8246 355.83 13.8246ZM355.818 57.0708C345.794 57.0708 337.516 48.7941 337.516 38.7691C337.516 28.6544 345.794 20.286 355.818 20.286C365.934 20.286 374.211 28.6544 374.211 38.7709C374.211 48.7941 365.934 57.0708 355.818 57.0708Z" fill="#FFB400"/>
</g>
<path d="M0.773859 130.307C0.609859 131.373 1.34786 132.111 2.33186 132.111H12.0079C12.8279 132.111 13.4839 131.455 13.5659 130.799L17.1739 105.461H17.3379L31.1959 132.029C31.4419 132.521 32.0979 132.931 32.5899 132.931H34.0659C34.4759 132.931 35.2139 132.521 35.4599 132.029L49.2359 105.461H49.3999L53.0899 130.799C53.1719 131.455 53.9099 132.111 54.6479 132.111H64.3239C65.3079 132.111 66.0459 131.373 65.8819 130.307L56.6159 75.2031C56.5339 74.4651 55.7959 73.8911 55.1399 73.8911H53.8279C53.4179 73.8911 52.6799 74.2191 52.4339 74.7111L33.4099 110.135H33.2459L14.2219 74.7111C13.9759 74.2191 13.2379 73.8911 12.8279 73.8911H11.5159C10.8599 73.8911 10.1219 74.4651 10.0399 75.2031L0.773859 130.307Z" fill="#FFFDD8"/>
<path d="M75.5521 110.135C75.5521 122.599 85.9661 132.931 98.8401 132.931C111.796 132.931 122.292 122.599 122.292 110.135V76.2691C122.292 75.4491 121.554 74.7111 120.734 74.7111H110.648C109.746 74.7111 109.09 75.4491 109.09 76.2691V109.479C109.09 115.219 104.744 119.811 98.8401 119.811C93.0181 119.811 88.7541 115.219 88.7541 109.479V76.2691C88.7541 75.4491 88.0981 74.7111 87.1961 74.7111H77.1101C76.2901 74.7111 75.5521 75.4491 75.5521 76.2691V110.135Z" fill="#FFFDD8"/>
<path d="M131.37 103.493C131.37 119.893 144.49 132.849 160.808 132.849C172.698 132.849 181.144 127.519 181.144 127.519C181.472 127.273 181.8 126.617 181.8 126.207L181.718 104.149C181.718 103.329 181.062 102.591 180.242 102.591H163.76C162.858 102.591 162.202 103.247 162.202 104.149V112.267C162.202 113.087 162.858 113.743 163.76 113.743H168.926V118.499C166.466 119.483 164.006 119.811 161.628 119.811C152.69 119.811 145.392 112.431 145.392 103.493C145.392 94.4731 152.608 86.9291 161.546 86.9291C165.564 86.9291 169.172 87.9951 172.288 90.8651C172.944 91.3571 173.846 91.3571 174.502 90.7831L180.98 83.8951C181.636 83.2391 181.554 82.2551 180.816 81.6811C175.24 76.8431 167.696 73.9731 160.808 73.9731C144.49 73.9731 131.37 87.0931 131.37 103.493Z" fill="#FFFDD8"/>
<path d="M400.697 132.029C400.943 132.521 401.435 132.931 402.091 132.931H402.911C403.567 132.931 404.059 132.521 404.305 132.029L430.053 76.8431C430.545 75.7771 429.889 74.7111 428.659 74.7111H417.753C417.097 74.7111 416.523 75.2031 416.359 75.6131L402.829 105.543H402.337L388.807 75.6131C388.643 75.2031 388.069 74.7111 387.413 74.7111H376.507C375.277 74.7111 374.621 75.7771 375.113 76.8431L400.697 132.029Z" fill="#FFFDD8"/>
<path d="M436.786 130.553C436.786 131.373 437.442 132.111 438.344 132.111H472.292C473.194 132.111 473.85 131.373 473.85 130.553V121.615C473.85 120.795 473.194 120.057 472.292 120.057H449.578V108.987H468.274C469.094 108.987 469.832 108.331 469.832 107.429V98.4911C469.832 97.6711 469.094 96.9331 468.274 96.9331H449.578V86.7651H472.292C473.194 86.7651 473.85 86.0271 473.85 85.2071V76.2691C473.85 75.4491 473.194 74.7111 472.292 74.7111H438.344C437.442 74.7111 436.786 75.4491 436.786 76.2691V130.553Z" fill="#FFFDD8"/>
<path d="M484.833 130.553C484.833 131.373 485.489 132.111 486.391 132.111H496.149C496.969 132.111 497.707 131.373 497.707 130.553V109.643H503.365L514.271 131.373C514.435 131.701 514.927 132.111 515.583 132.111H526.489C527.883 132.111 528.457 130.799 527.883 129.733L516.649 108.905C523.783 106.035 528.785 99.9671 528.785 92.4231C528.785 82.6651 520.749 74.7111 510.909 74.7111H486.391C485.489 74.7111 484.833 75.4491 484.833 76.2691V130.553ZM497.707 99.2291V86.4371H509.843C513.205 86.4371 516.075 89.2251 516.075 92.6691C516.075 96.1131 513.205 99.2291 509.843 99.2291H497.707Z" fill="#FFFDD8"/>
<path d="M539.766 130.553C539.766 131.373 540.422 132.111 541.324 132.111H551C551.82 132.111 552.558 131.373 552.558 130.553V110.627H571.254C572.074 110.627 572.812 109.889 572.812 109.069V100.131C572.812 99.3111 572.074 98.5731 571.254 98.5731H552.558V86.7651H575.272C576.174 86.7651 576.83 86.0271 576.83 85.2071V76.2691C576.83 75.4491 576.174 74.7111 575.272 74.7111H541.324C540.422 74.7111 539.766 75.4491 539.766 76.2691V130.553Z" fill="#FFFDD8"/>
<path d="M585.971 130.553C585.971 131.373 586.627 132.111 587.529 132.111H618.361C619.263 132.111 619.919 131.373 619.919 130.553V121.615C619.919 120.795 619.263 120.057 618.361 120.057H598.845V76.2691C598.845 75.4491 598.107 74.7111 597.287 74.7111H587.529C586.627 74.7111 585.971 75.4491 585.971 76.2691V130.553Z" fill="#FFFDD8"/>
<path d="M623.35 103.493C623.35 119.893 636.388 132.931 652.788 132.931C669.188 132.931 682.308 119.893 682.308 103.493C682.308 87.0931 669.188 73.8911 652.788 73.8911C636.388 73.8911 623.35 87.0931 623.35 103.493ZM636.47 103.493C636.47 94.4731 643.85 87.0111 652.788 87.0111C661.808 87.0111 669.188 94.4731 669.188 103.493C669.188 112.431 661.808 119.811 652.788 119.811C643.85 119.811 636.47 112.431 636.47 103.493Z" fill="#FFFDD8"/>
<path d="M702.249 131.783C702.413 132.439 703.069 132.931 703.725 132.931H705.037C705.611 132.931 706.185 132.521 706.431 132.029L721.355 98.4911H721.601L736.607 132.029C736.853 132.521 737.427 132.931 738.001 132.931H739.313C739.969 132.931 740.625 132.439 740.789 131.783L756.287 76.6791C756.615 75.5311 755.959 74.7111 754.811 74.7111H745.217C744.561 74.7111 743.905 75.2851 743.741 75.8591L736.689 103.657H736.361L723.651 74.7931C723.487 74.3011 722.995 73.8911 722.257 73.8911H720.781C720.125 73.8911 719.633 74.3011 719.387 74.7931L706.677 103.657H706.349L699.297 75.8591C699.133 75.2851 698.477 74.7111 697.821 74.7111H688.227C687.079 74.7111 686.423 75.5311 686.751 76.6791L702.249 131.783Z" fill="#FFFDD8"/>
<path d="M537.468 69H541.428C542.148 69 542.544 68.568 542.724 68.136L544.02 65.256H553.812L555.108 68.1C555.432 68.784 555.72 69 556.368 69H560.364C560.904 69 561.192 68.532 560.976 68.064L549.708 43.836C549.6 43.62 549.348 43.44 549.096 43.44H548.736C548.484 43.44 548.232 43.62 548.124 43.836L536.856 68.064C536.64 68.532 536.928 69 537.468 69ZM546.18 60.36L548.88 54.42H548.916L551.652 60.36H546.18Z" fill="#FFB400"/>
<path d="M561.384 61.8C561.384 65.94 564.444 69.36 568.512 69.36C571.68 69.36 573.336 67.092 573.336 67.092L573.768 68.28C573.912 68.676 574.164 69 574.524 69H576.216C576.576 69 576.9 68.676 576.9 68.316V44.484C576.9 44.124 576.576 43.8 576.216 43.8H572.22C571.86 43.8 571.536 44.124 571.536 44.484V54.924C571.104 54.672 569.772 54.24 568.548 54.24C564.696 54.24 561.384 56.724 561.384 61.8ZM566.316 61.764C566.316 60.144 567.576 58.884 569.232 58.884C570.888 58.884 572.112 60.144 572.112 61.764C572.112 63.42 570.888 64.716 569.232 64.716C567.576 64.716 566.316 63.42 566.316 61.764Z" fill="#FFB400"/>
<path d="M580.78 68.316C580.78 68.676 581.068 69 581.464 69H585.244C585.604 69 585.928 68.676 585.928 68.316V61.404C585.928 59.928 587.008 58.884 588.448 58.884C590.068 58.884 590.716 60.144 590.716 61.584V68.316C590.716 68.676 591.004 69 591.4 69H594.856C595.252 69 595.54 68.676 595.54 68.316V61.332C595.54 59.928 596.692 58.884 597.952 58.884C599.608 58.884 600.364 60.144 600.364 61.584V68.316C600.364 68.676 600.652 69 601.048 69H604.864C605.26 69 605.548 68.676 605.548 68.316V61.8C605.548 57.696 603.352 54.24 598.888 54.24C596.44 54.24 594.748 55.608 593.92 56.436C592.624 54.996 591.22 54.24 589.204 54.24C586.9 54.24 585.244 55.536 584.344 56.472L583.732 54.996C583.624 54.78 583.372 54.6 583.12 54.6H581.464C581.068 54.6 580.78 54.888 580.78 55.284V68.316Z" fill="#FFB400"/>
<path d="M611.709 50.244C613.293 50.244 614.589 48.984 614.589 47.4C614.589 45.816 613.293 44.52 611.709 44.52C610.125 44.52 608.865 45.816 608.865 47.4C608.865 48.984 610.125 50.244 611.709 50.244ZM609.081 68.316C609.081 68.676 609.405 69 609.765 69H613.725C614.085 69 614.409 68.676 614.409 68.316V55.284C614.409 54.888 614.085 54.6 613.725 54.6H609.765C609.405 54.6 609.081 54.888 609.081 55.284V68.316Z" fill="#FFB400"/>
<path d="M618.292 68.316C618.292 68.676 618.616 69 618.976 69H622.756C623.26 69 623.404 68.64 623.404 68.316V61.404C623.404 59.928 624.7 58.884 626.14 58.884C627.76 58.884 628.588 60.144 628.588 61.584V68.316C628.588 68.676 628.876 69 629.272 69H633.124C633.484 69 633.808 68.676 633.808 68.316V61.764C633.808 57.66 631.432 54.24 626.968 54.24C624.34 54.24 622.684 55.608 621.892 56.472L621.316 55.032C621.208 54.78 620.884 54.6 620.668 54.6H618.976C618.616 54.6 618.292 54.888 618.292 55.284V68.316Z" fill="#FFB400"/>
<path d="M639.939 50.244C641.523 50.244 642.819 48.984 642.819 47.4C642.819 45.816 641.523 44.52 639.939 44.52C638.355 44.52 637.095 45.816 637.095 47.4C637.095 48.984 638.355 50.244 639.939 50.244ZM637.311 68.316C637.311 68.676 637.635 69 637.995 69H641.955C642.315 69 642.639 68.676 642.639 68.316V55.284C642.639 54.888 642.315 54.6 641.955 54.6H637.995C637.635 54.6 637.311 54.888 637.311 55.284V68.316Z" fill="#FFB400"/>
<path d="M646.018 68.172C646.738 68.748 648.538 69.36 650.914 69.36C654.982 69.36 656.998 67.308 656.998 64.788C656.998 61.908 654.982 60.756 652.066 59.748C650.842 59.316 650.446 58.956 650.446 58.596C650.446 58.2 650.77 58.092 651.238 58.092C652.642 58.092 654.298 58.92 654.298 58.92C654.586 59.028 654.946 58.92 655.054 58.704L656.386 56.256C656.602 55.896 656.35 55.572 656.026 55.356C655.234 54.852 653.506 54.24 651.238 54.24C647.35 54.24 645.622 56.184 645.622 58.596C645.622 60.828 646.846 62.448 649.654 63.42C651.49 64.068 651.706 64.572 651.706 64.932C651.706 65.364 651.382 65.58 651.022 65.58C649.474 65.58 647.782 64.644 647.782 64.644C647.494 64.5 647.134 64.716 647.026 64.932L645.766 67.416C645.586 67.74 645.766 67.956 646.018 68.172Z" fill="#FFB400"/>
<path d="M660.458 64.356C660.458 67.632 662.042 69.36 664.778 69.36C666.577 69.36 669.134 68.568 669.134 68.568C669.494 68.46 669.674 68.064 669.602 67.74L668.81 64.752C668.702 64.356 668.378 64.212 668.018 64.284C667.658 64.356 667.118 64.536 666.614 64.536C666.182 64.536 665.642 64.464 665.642 63.672V59.172H668.306C668.702 59.172 668.99 58.848 668.99 58.488V55.284C668.99 54.888 668.702 54.6 668.306 54.6H665.642V50.604C665.642 50.244 665.354 49.92 664.993 49.92H661.142C660.782 49.92 660.458 50.244 660.458 50.604V54.6H659.522C659.162 54.6 658.874 54.888 658.874 55.284V58.488C658.874 58.848 659.162 59.172 659.522 59.172H660.458V64.356Z" fill="#FFB400"/>
<path d="M672.257 68.316C672.257 68.676 672.581 69 672.941 69H676.613C677.189 69 677.405 68.748 677.405 68.316V60.864C677.405 59.64 678.232 58.812 679.312 58.812C679.637 58.812 679.997 58.92 680.177 58.992C680.573 59.136 680.825 58.92 680.969 58.668L682.733 55.788C683.237 54.96 681.833 54.24 679.853 54.24C677.981 54.24 676.649 55.572 675.929 56.616L675.281 55.032C675.173 54.816 675.029 54.6 674.633 54.6H672.941C672.581 54.6 672.257 54.888 672.257 55.284V68.316Z" fill="#FFB400"/>
<path d="M683.695 64.608C683.695 67.452 685.819 69.36 688.663 69.36C690.931 69.36 692.191 68.316 693.019 67.56L693.523 68.532C693.703 68.928 693.955 69 694.171 69H695.755C696.115 69 696.439 68.676 696.439 68.316V60.36C696.439 56.112 694.819 54.24 690.355 54.24C688.411 54.24 685.891 54.672 685.567 54.78C685.243 54.888 684.919 55.14 685.027 55.752L685.351 58.02C685.423 58.56 685.675 58.956 686.215 58.776C687.151 58.488 688.843 58.236 689.815 58.236C691.543 58.236 691.759 58.956 691.759 60.36C691.759 60.36 690.607 59.784 688.987 59.784C685.711 59.784 683.695 61.836 683.695 64.608ZM688.375 64.248C688.375 63.42 689.059 62.736 689.923 62.736C690.787 62.736 691.471 63.42 691.507 64.248C691.507 65.112 690.787 65.832 689.923 65.832C689.059 65.832 688.375 65.112 688.375 64.248Z" fill="#FFB400"/>
<path d="M700.676 64.356C700.676 67.632 702.26 69.36 704.996 69.36C706.796 69.36 709.352 68.568 709.352 68.568C709.712 68.46 709.892 68.064 709.82 67.74L709.028 64.752C708.92 64.356 708.596 64.212 708.236 64.284C707.876 64.356 707.336 64.536 706.832 64.536C706.4 64.536 705.86 64.464 705.86 63.672V59.172H708.524C708.92 59.172 709.208 58.848 709.208 58.488V55.284C709.208 54.888 708.92 54.6 708.524 54.6H705.86V50.604C705.86 50.244 705.572 49.92 705.212 49.92H701.36C701 49.92 700.676 50.244 700.676 50.604V54.6H699.74C699.38 54.6 699.092 54.888 699.092 55.284V58.488C699.092 58.848 699.38 59.172 699.74 59.172H700.676V64.356Z" fill="#FFB400"/>
<path d="M715.103 50.244C716.687 50.244 717.983 48.984 717.983 47.4C717.983 45.816 716.687 44.52 715.103 44.52C713.519 44.52 712.259 45.816 712.259 47.4C712.259 48.984 713.519 50.244 715.103 50.244ZM712.475 68.316C712.475 68.676 712.799 69 713.159 69H717.119C717.479 69 717.803 68.676 717.803 68.316V55.284C717.803 54.888 717.479 54.6 717.119 54.6H713.159C712.799 54.6 712.475 54.888 712.475 55.284V68.316Z" fill="#FFB400"/>
<path d="M720.57 61.764C720.57 65.904 723.954 69.36 728.058 69.36C732.162 69.36 735.546 65.904 735.546 61.764C735.546 57.696 732.162 54.24 728.058 54.24C723.954 54.24 720.57 57.696 720.57 61.764ZM725.214 61.764C725.214 60.18 726.474 58.884 728.058 58.884C729.642 58.884 730.902 60.18 730.902 61.764C730.902 63.384 729.642 64.716 728.058 64.716C726.474 64.716 725.214 63.384 725.214 61.764Z" fill="#FFB400"/>
<path d="M738.315 68.316C738.315 68.676 738.639 69 738.999 69H742.779C743.283 69 743.427 68.64 743.427 68.316V61.404C743.427 59.928 744.723 58.884 746.163 58.884C747.783 58.884 748.611 60.144 748.611 61.584V68.316C748.611 68.676 748.899 69 749.295 69H753.147C753.507 69 753.831 68.676 753.831 68.316V61.764C753.831 57.66 751.455 54.24 746.991 54.24C744.363 54.24 742.707 55.608 741.915 56.472L741.339 55.032C741.231 54.78 740.907 54.6 740.691 54.6H738.999C738.639 54.6 738.315 54.888 738.315 55.284V68.316Z" fill="#FFB400"/>
<defs>
<clipPath id="clip0_2_35">
<rect width="164" height="164" fill="white" transform="translate(215.997)"/>
</clipPath>
</defs>
</svg>
